<svg xmlns="http://www.w3.org/2000/svg" xmlns:xlink="http://www.w3.org/1999/xlink" style="display: none;">
  <symbol id="heart" viewBox="0 0 1024 1024">
  	<title>Heart</title>
  	<path fill="currentColor" d="M512 950.857q-14.857 0-25.143-10.286l-356.571-344q-5.714-4.571-15.714-14.857t-31.714-37.429-38.857-55.714-30.571-69.143-13.429-78.857q0-125.714 72.571-196.571t200.571-70.857q35.429 0 72.286 12.286t68.571 33.143 54.571 39.143 43.429 38.857q20.571-20.571 43.429-38.857t54.571-39.143 68.571-33.143 72.286-12.286q128 0 200.571 70.857t72.571 196.571q0 126.286-130.857 257.143l-356 342.857q-10.286 10.286-25.143 10.286z"></path>
  </symbol>
</svg>
